<svg width="960" height="600" viewBox="0 0 960 600" fill="none" xmlns="http://www.w3.org/2000/svg">
  <defs>
    <linearGradient id="d1" x1="0" y1="0" x2="1" y2="1">
      <stop stop-color="#0E1018" />
      <stop offset="1" stop-color="#141925" />
    </linearGradient>
    <linearGradient id="d2" x1="0" y1="0" x2="1" y2="0">
      <stop stop-color="#E10600" />
      <stop offset="1" stop-color="#FF6B5F" />
    </linearGradient>
    <linearGradient id="d3" x1="0" y1="0" x2="1" y2="0">
      <stop stop-color="#34E8FF" stop-opacity="0.2" />
      <stop offset="1" stop-color="#1B65FF" stop-opacity="0.08" />
    </linearGradient>
  </defs>

  <rect width="960" height="600" rx="28" fill="url(#d1)" />

  <g fill="#0F121C" stroke="#1E2432" stroke-width="2">
    <rect x="120" y="142" width="260" height="168" rx="18" />
    <rect x="350" y="196" width="220" height="216" rx="20" />
    <rect x="580" y="146" width="260" height="188" rx="18" />
  </g>

  <g fill="#111522" stroke="#222A38" stroke-width="2">
    <rect x="140" y="156" width="100" height="72" rx="14" />
    <rect x="260" y="156" width="100" height="72" rx="14" />
    <rect x="370" y="214" width="110" height="86" rx="16" />
    <rect x="500" y="214" width="52" height="86" rx="12" />
    <rect x="604" y="160" width="106" height="76" rx="16" />
    <rect x="734" y="160" width="86" height="76" rx="16" />
  </g>

  <g fill="url(#d3)">
    <rect x="140" y="252" width="224" height="40" rx="12" />
    <rect x="370" y="320" width="180" height="40" rx="12" />
    <rect x="604" y="256" width="176" height="40" rx="12" />
  </g>

  <path d="M140 360C140 344 156 332 184 332H612C640 332 656 344 656 360C656 376 640 388 612 388H184C156 388 140 376 140 360Z" fill="#10131E" stroke="#1E2432" stroke-width="2" />

  <path d="M164 360C164 352 172 346 182 346H366" stroke="url(#d2)" stroke-width="12" stroke-linecap="round" stroke-dasharray="14 16" />

  <g>
    <circle cx="188" cy="360" r="10" fill="#E1E4ED" />
    <circle cx="264" cy="360" r="10" fill="#E1E4ED" />
    <circle cx="342" cy="360" r="10" fill="#E1E4ED" />
    <circle cx="422" cy="360" r="10" fill="#E1E4ED" />
    <circle cx="502" cy="360" r="10" fill="#E1E4ED" />
    <circle cx="582" cy="360" r="10" fill="#E1E4ED" />
  </g>

  <g fill="#E1E4ED" opacity="0.8">
    <circle cx="190" cy="192" r="18" />
    <circle cx="308" cy="192" r="18" />
    <circle cx="426" cy="256" r="22" />
    <circle cx="632" cy="200" r="20" />
    <circle cx="776" cy="200" r="18" />
  </g>

  <g fill="#0D0F17">
    <circle cx="190" cy="192" r="8" />
    <circle cx="308" cy="192" r="8" />
    <circle cx="426" cy="256" r="10" />
    <circle cx="632" cy="200" r="9" />
    <circle cx="776" cy="200" r="8" />
  </g>

  <text x="60" y="84" fill="#E7E9F2" font-size="38" font-family="Montserrat, Segoe UI, sans-serif" font-weight="800">Driver Ops</text>
  <text x="60" y="124" fill="#9EA3B0" font-size="18" font-family="Montserrat, Segoe UI, sans-serif" font-weight="600">Fahrerdaten, Teams und Nummern verwalten.</text>
</svg>
