<svg width="960" height="600" viewBox="0 0 960 600" fill="none" xmlns="http://www.w3.org/2000/svg">
  <defs>
    <linearGradient id="r1" x1="0" y1="0" x2="1" y2="1">
      <stop stop-color="#0D0F17" />
      <stop offset="1" stop-color="#151922" />
    </linearGradient>
    <linearGradient id="r2" x1="0" y1="0" x2="1" y2="0">
      <stop stop-color="#E10600" />
      <stop offset="1" stop-color="#FF4D46" />
    </linearGradient>
    <linearGradient id="r3" x1="0" y1="0" x2="1" y2="0">
      <stop stop-color="#00F5FF" stop-opacity="0.25" />
      <stop offset="1" stop-color="#0066FF" stop-opacity="0.05" />
    </linearGradient>
    <filter id="shadow" x="-10%" y="-10%" width="120%" height="120%" color-interpolation-filters="sRGB">
      <feDropShadow dx="0" dy="12" stdDeviation="16" flood-color="#000" flood-opacity="0.35" />
    </filter>
  </defs>

  <rect width="960" height="600" rx="28" fill="url(#r1)" />

  <g filter="url(#shadow)">
    <path d="M140 340C140 280 200 260 260 240C320 220 520 170 620 190C720 210 770 250 770 310C770 370 700 410 590 420C520 426 460 412 390 394C300 372 140 400 140 340Z" fill="#0F121C" stroke="#1E2432" stroke-width="2" />
    <path d="M220 328C220 304 240 292 268 280C320 258 500 214 600 230C700 246 730 270 730 300C730 330 700 354 630 364C560 374 500 360 430 346C340 328 220 352 220 328Z" fill="#10131E" stroke="#242A38" stroke-width="2" />
    <path d="M220 328C220 304 240 292 268 280C320 258 500 214 600 230C700 246 730 270 730 300C730 330 700 354 630 364C560 374 500 360 430 346C340 328 220 352 220 328Z" fill="url(#r3)" />
  </g>

  <path d="M200 330C200 304 228 290 270 276C312 262 410 236 520 236C630 236 700 256 730 286" stroke="url(#r2)" stroke-width="18" stroke-linecap="round" stroke-linejoin="round" stroke-dasharray="14 14" />

  <g stroke="#E1E4ED" stroke-width="4" stroke-linecap="round">
    <path d="M215 332L235 332" />
    <path d="M292 306L312 302" />
    <path d="M368 284L392 280" />
    <path d="M452 266L474 266" />
    <path d="M536 258L564 260" />
    <path d="M622 262L644 268" />
    <path d="M698 284L718 294" />
  </g>

  <g fill="#E1E4ED" opacity="0.72">
    <circle cx="262" cy="270" r="6" />
    <circle cx="430" cy="244" r="6" />
    <circle cx="598" cy="244" r="6" />
    <circle cx="710" cy="300" r="6" />
  </g>

  <text x="60" y="86" fill="#E7E9F2" font-size="38" font-family="Montserrat, Segoe UI, sans-serif" font-weight="800">Race Control</text>
  <text x="60" y="126" fill="#9EA3B0" font-size="18" font-family="Montserrat, Segoe UI, sans-serif" font-weight="600">Kalender, Strecken, Sessions – alles im Griff.</text>
</svg>
